<svg height="512pt" viewBox="0 0 512 512" width="512pt" xmlns="http://www.w3.org/2000/svg"><path d="m232 200h-16c-4.417969 0-8-3.582031-8-8s3.582031-8 8-8h32v-16h-16v-16h-16v16c-13.253906 0-24 10.746094-24 24s10.746094 24 24 24h16c4.417969 0 8 3.582031 8 8s-3.582031 8-8 8h-32v16h16v16h16v-16c13.253906 0 24-10.746094 24-24s-10.746094-24-24-24zm0 0"/><path d="m156.238281 99.503906-8.476562-13.601562c-29.378907 18.34375-51.164063 46.65625-61.363281 79.753906l15.296874 4.6875c9.078126-29.402344 28.441407-54.550781 54.542969-70.839844zm0 0"/><path d="m147.761719 330.0625 8.476562-13.597656c-26.09375-16.296875-45.445312-41.449219-54.511719-70.847656l-15.292968 4.6875c10.1875 33.09375 31.957031 61.410156 61.328125 79.757812zm0 0"/><path d="m361.601562 250.304688-15.328124-4.609376c-8.875 29.558594-28.253907 54.851563-54.488282 71.105469l8.429688 13.597657c29.550781-18.3125 51.382812-46.800782 61.386718-80.09375zm0 0"/><path d="m311.632812 401.207031-4.898437 4.199219 6.203125-43.414062-7-1.753907c-22.0625-5.5625-44.589844 7.253907-51.082031 29.058594l-13.457031 44.863281-25.710938 5.710938-41.648438-5.949219 30.695313-15.347656c15.511719-7.671875 21.984375-26.378907 14.53125-41.996094-7.449219-15.617187-26.0625-22.351563-41.785156-15.121094l-68.800781 31.261719-38.894532 23.28125h-69.785156v16h74.214844l41.511718-24.902344 68.378907-31.097656c5.570312-2.539062 12.109375-1.597656 16.734375 2.414062 4.625 4.011719 6.488281 10.351563 4.761718 16.226563-1.199218 4.179687-4.105468 7.664063-8 9.597656l-45.601562 22.816407v19.882812l64.3125 9.191406 75.375-16.753906 30.351562-26.023438c10.839844-9.292968 25.382813-13.011718 39.351563-10.0625l-53.886719 53.886719-77.519531 31.007813-62.480469 7.816406h-167.503906v16h168.503906l64.488282-8.0625 83.503906-33.113281 73.007812-73.015625-9.929687-4.96875c-22.261719-11.160156-49.050781-7.863282-67.941407 8.367187zm-23.3125 20-4 3.433594-25.015624 5.597656 10.886718-36.292969c3.285156-10.996093 13.265625-18.628906 24.738282-18.921874zm0 0"/><path d="m289.414062 25.175781 157.050782 62.824219h65.535156v-16h-62.464844l-162.949218-65.175781-93.867188 76.800781-7.3125 36.535156c-42.023438 18.421875-65.125 64.019532-55.121094 108.804688 10 44.78125 50.308594 76.21875 96.179688 75.007812 45.871094-1.210937 84.464844-34.722656 92.09375-79.972656h74.609375l80-24h38.832031v-16h-40l-81.167969 24h-89.929687c-6.917969.027344-12.628906-5.410156-12.9375-12.324219-.3125-6.914062 4.886718-12.839843 11.777344-13.4375l76.257812-6.933593v-68.90625l-97.335938-35.398438-36.976562 27.734375-6.960938 13.929687c-10.636718-1.289062-21.421874-.699218-31.855468 1.75l4.410156-22.039062zm-35.101562 84.089844 27.023438-20.265625 78.664062 28.601562v43.09375l-50.0625 4.542969c-11.894531-23.957031-33.261719-41.851562-58.9375-49.351562zm-30.3125 18.734375c28.28125-.003906 54.453125 14.957031 68.800781 39.328125-13.824219 4.023437-22.578125 17.601563-20.542969 31.851563 2.039063 14.25 14.25 24.832031 28.644532 24.820312h1.417968c-8.421874 41.257812-47.382812 68.925781-89.113281 63.277344-41.726562-5.648438-71.933593-42.671875-69.085937-84.683594 2.84375-42.011719 37.769531-74.628906 79.878906-74.59375zm0 0"/><path d="m0 0h16v128h-16zm0 0"/><path d="m32 0h16v96h-16zm0 0"/><path d="m64 0h16v64h-16zm0 0"/><path d="m496 384h16v128h-16zm0 0"/><path d="m464 416h16v96h-16zm0 0"/><path d="m432 448h16v64h-16zm0 0"/></svg>