<?xml version="1.0" encoding="iso-8859-1"?>
<!-- Generator: Adobe Illustrator 19.0.0, SVG Export Plug-In . SVG Version: 6.00 Build 0)  -->
<svg version="1.1" id="Capa_1" xmlns="http://www.w3.org/2000/svg" xmlns:xlink="http://www.w3.org/1999/xlink" x="0px" y="0px"
	 viewBox="0 0 496 496" style="enable-background:new 0 0 496 496;" xml:space="preserve">
<g>
	<g>
		<path d="M400,0h-16h-80h-16h-80h-16h-80H96H0v88v8v16c0,13.232,10.768,24,24,24h29.448l124.248,48.624l-68.688,28.04l0.12,0.296
			C102.736,209.816,95.584,208,88,208c-26.472,0-48,21.528-48,48s21.528,48,48,48c9.576,0,18.48-2.848,25.976-7.696L181.832,324
			l-127.4,52H36.688L0,412.688V456h32.72c3.824,22.664,23.536,40,47.28,40s43.448-17.336,47.28-40h241.44
			c3.824,22.664,23.536,40,47.28,40c23.744,0,43.448-17.336,47.28-40H496v-43.312L459.312,376h-9.744l-127.4-52l67.856-27.696
			C397.52,301.152,406.424,304,416,304c26.472,0,48-21.528,48-48s-21.528-48-48-48c-7.584,0-14.736,1.816-21.12,4.96l0.12-0.296
			l-68.688-28.04L450.552,136H472c13.232,0,24-10.768,24-24V96v-8V0H400z M304,16h80v64h-80V16z M208,16h80v64h-80V16z M112,16h80
			v64h-80V16z M88,288c-17.648,0-32-14.352-32-32s14.352-32,32-32s32,14.352,32,32S105.648,288,88,288z M199.304,193.088
			l30.752,12.032l-95.976,37.56c-2.04-7.04-5.656-13.4-10.432-18.712L199.304,193.088z M252,213.712l102.12,39.968L252,295.36
			l-102.12-41.68L252,213.712z M203,332.64L230.832,344l-78.4,32H96.768L203,332.64z M252,352.64L309.232,376H194.768L252,352.64z
			 M80,480c-17.648,0-32-14.352-32-32s14.352-32,32-32s32,14.352,32,32S97.648,480,80,480z M416,480c-17.648,0-32-14.352-32-32
			s14.352-32,32-32s32,14.352,32,32S433.648,480,416,480z M452.688,392L480,419.312V440h-16.72c-3.824-22.664-23.536-40-47.28-40
			c-9.784,0-18.88,2.952-26.48,8H352v16h22.496c-2.824,4.864-4.8,10.256-5.768,16H127.28c-0.968-5.744-2.952-11.136-5.768-16H336
			v-16H106.48c-7.6-5.048-16.696-8-26.48-8c-23.736,0-43.448,17.336-47.28,40H16v-20.688L43.312,392H452.688z M407.232,376h-55.664
			l-224.832-91.768c4.12-5.64,7.048-12.176,8.4-19.288L407.232,376z M301,315.352L273.168,304l95.696-39.064
			c1.344,7.112,4.28,13.656,8.4,19.288L301,315.352z M416,224c17.648,0,32,14.352,32,32s-14.352,32-32,32s-32-14.352-32-32
			S398.352,224,416,224z M380.352,223.968c-4.776,5.312-8.392,11.672-10.432,18.712L97.336,136h67.496L380.352,223.968z
			 M207.168,136h89.656L252,154.296L207.168,136z M304.824,175.856l-31.656-12.92l66-26.936h67.496L304.824,175.856z M480,112
			c0,4.408-3.584,8-8,8H24c-4.416,0-8-3.592-8-8V96h48V80H16V16h80v64H80v16h16h16h80h16h80h16h80h16h80V112z M480,80h-80V16h80V80z
			"/>
	</g>
</g>
<g>
</g>
<g>
</g>
<g>
</g>
<g>
</g>
<g>
</g>
<g>
</g>
<g>
</g>
<g>
</g>
<g>
</g>
<g>
</g>
<g>
</g>
<g>
</g>
<g>
</g>
<g>
</g>
<g>
</g>
</svg>
